<svg xmlns="http://www.w3.org/2000/svg" viewBox="-5 -5 1757.4767078498865 1090">
  <style>
    .line {
      stroke: hsl(225, 100%, 75%);
      stroke-width: 1;
      fill: none;
    }

    .spiral {
      stroke: hsla(45, 100%, 50%, 0.5);
      stroke-width: 3;
      stroke-linecap: round;
      fill: none;
    }
  </style>
  <rect x="-5" y="-5" width="1757.5" height="1090" fill="black" />
  <rect width="1747.4767078498865" height="1080" fill="hsl(225,50%,10%)" stroke="white" />

  <path class="line" d="
      M 667.4767078498863 0 V 1080
      v -667.4767078498863 h -667.4767078498863
      h 412.5232921501135 v -412.5232921501135
      v 254.9534156997728 h 254.9534156997728
      h -157.56987645034062 v 157.56987645034062
      v -97.38353924943212 h -97.38353924943212
      h 60.18633720090847 v -60.18633720090847
      v 37.197202048523636 h 37.197202048523636
      h -22.98913515238482 v 22.98913515238482
      v -14.20806689613881 h -14.20806689613881
      h 8.781068256246005 v -8.781068256246005
      v 5.426998639892802 h 5.426998639892802
      h -3.354069616353202 v 3.354069616353202
    " />
  <path class="spiral" d="
      M 483.5636266308075,300.93168600454266
      A 3.354069616353202,3.354069616353202 1 0 0 486.91769624716073,297.5776163881894
      A 5.426998639892802,5.426998639892802 1 0 0 481.4906976072679,292.1506177482966
      A 8.781068256246005,8.781068256246005 1 0 0 472.70962935102193,300.9316860045426
      A 14.20806689613881,14.20806689613881 1 0 0 486.9176962471609,315.1397529006814
      A 22.98913515238482,22.98913515238482 1 0 0 509.9068313995457,292.15061774829644
      A 37.197202048523636,37.197202048523636 1 0 0 472.70962935102193,254.9534156997728 
      A 60.18633720090847,60.18633720090847 1 0 0 412.5232921501135,315.1397529006814
      A 97.38353924943212,97.38353924943212 1 0 0 509.9068313995457,412.5232921501135 
      A 157.56987645034062,157.56987645034062 1 0 0 667.4767078498863,254.9534156997728
      A 254.9534156997728,254.9534156997728 1 0 0 412.5232921501135,0
      A 412.5232921501135,412.5232921501135 1 0 0 0,412.5232921501135
      A 667.4767078498863,667.4767078498863 1 0 0  667.4767078498863,1080
      A 1080,1080 1 0 0 1747.4767078498865,0
    " />
</svg>